#!OML:ASF F:\VICON\USERDATA\INSTALL\rory3\rory3.ASF
:FULLY-SPECIFIED
:DEGREES
1239
root 2.45329 17.817 13.9272 -167.961 -63.86 175.906
lowerback 2.13937 -3.55394 -7.14842
upperback -1.15884 -4.925 2.64224
thorax -1.56797 -2.37035 6.8996
lowerneck -18.0591 -4.09802 -11.7448
upperneck 36.5786 -5.70661 4.37493
head 16.763 -4.02382 2.69885
rclavicle -6.57977e-014 3.29983e-014
rhumerus -31.9877 -5.06782 -79.1474
rradius 34.5769
rwrist 19.1709
rhand -20.625 2.73914
rfingers 7.12502
rthumb 5.73641 -27.1632
lclavicle -6.57977e-014 3.29983e-014
lhumerus -30.2505 0.0475737 84.6966
lradius 34.6947
lwrist -5.66884
lhand -10.0623 25.5891
lfingers 7.12502
lthumb 15.9236 54.9545
rfemur -17.0032 -1.19062 18.606
rtibia 31.7609
rfoot -24.3177 -10.0443
rtoes 12.488
lfemur -13.3982 9.893 -26.2654
ltibia 21.9545
lfoot -14.6838 35.1438
ltoes -4.49041
1240
root 2.45536 17.8242 13.9102 -168.015 -63.5751 176.03
lowerback 2.05662 -3.60406 -6.99254
upperback -1.12813 -4.98104 2.64821
thorax -1.49207 -2.40467 6.81005
lowerneck -18.1279 -4.05898 -11.6342
upperneck 36.5769 -5.65472 4.3101
head 16.7647 -3.99591 2.65965
rclavicle 7.74763e-014 -8.34896e-015
rhumerus -32.0464 -5.68556 -78.9075
rradius 34.3608
rwrist 19.4635
rhand -20.405 2.57881
rfingers 7.12502
rthumb 5.9488 -27.3177
lclavicle 7.74763e-014 -8.34896e-015
lhumerus -30.0049 -0.660481 85.0393
lradius 34.5574
lwrist -6.66564
lhand -9.6676 24.7764
lfingers 7.12502
lthumb 16.3037 54.111
rfemur -17.0449 -1.00544 18.6898
rtibia 31.6954
rfoot -24.3515 -9.73502
rtoes 14.2365
lfemur -13.4314 9.88411 -26.1883
ltibia 21.9403
lfoot -14.6875 35.4095
ltoes -4.31455
1241
root 2.45778 17.8277 13.8929 -167.912 -63.2636 176.027
lowerback 1.98013 -3.65686 -6.89314
upperback -1.14399 -5.04413 2.66742
thorax -1.46152 -2.43848 6.76906
lowerneck -18.1279 -4.00522 -11.6036
upperneck 36.5199 -5.54335 4.22037
head 16.717 -3.95698 2.63568
rclavicle 5.04913e-014 2.38542e-015
rhumerus -32.0885 -6.0855 -78.6829
rradius 33.9721
rwrist 19.6162
rhand -20.7413 2.65472
rfingers 7.12502
rthumb 5.62417 -27.2506
lclavicle 5.04913e-014 2.38542e-015
lhumerus -29.9853 -1.47683 85.4111
lradius 34.7205
lwrist -7.43463
lhand -9.23793 24.5967
lfingers 7.12502
lthumb 16.7174 53.8969
rfemur -17.1548 -0.842132 18.6953
rtibia 31.6198
rfoot -24.0988 -9.98083
rtoes 12.1851
lfemur -13.5109 9.7344 -26.1876
ltibia 21.9418
lfoot -14.9896 35.7949
ltoes -3.78408
1242
root 2.46042 17.8285 13.8688 -167.906 -63.0136 176.064
lowerback 1.97002 -3.70309 -6.84909
upperback -1.17002 -5.10452 2.72189
thorax -1.47163 -2.46832 6.80215
lowerneck -18.0918 -3.93696 -11.6842
upperneck 36.4618 -5.40892 4.21661
head 16.6658 -3.91347 2.67467
rclavicle -8.62228e-014 -2.38542e-015
rhumerus -32.1485 -6.22696 -78.4716
rradius 33.5223
rwrist 19.0538
rhand -21.3702 2.84379
rfingers 7.12502
rthumb 5.01689 -27.0768
lclavicle -8.62228e-014 -2.38542e-015
lhumerus -30.3245 -2.68767 85.8254
lradius 35.3011
lwrist -7.63096
lhand -9.01432 24.5389
lfingers 7.12502
lthumb 16.9326 53.8208
rfemur -17.1777 -0.579096 18.7485
rtibia 31.5624
rfoot -23.9644 -10.2746
rtoes 10.3996
lfemur -13.506 9.68244 -26.124
ltibia 21.9431
lfoot -15.0928 36.0635
ltoes -3.84467
1243
root 2.46034 17.8296 13.8422 -168.029 -62.8103 176.177
lowerback 1.90727 -3.76506 -6.82507
upperback -1.10079 -5.18095 2.79683
thorax -1.34677 -2.51469 6.85905
lowerneck -18.2049 -3.88152 -11.689
upperneck 36.4728 -5.29125 4.18112
head 16.6846 -3.86979 2.68162
rclavicle 4.08006e-014 2.38542e-015
rhumerus -32.142 -6.63006 -78.194
rradius 33.1712
rwrist 18.9649
rhand -21.9186 3.12556
rfingers 7.12502
rthumb 4.48733 -26.8069
lclavicle 4.08006e-014 2.38542e-015
lhumerus -30.5303 -3.89997 86.2118
lradius 35.8801
lwrist -7.56838
lhand -9.16743 24.7537
lfingers 7.12502
lthumb 16.7853 54.0481
rfemur -17.1148 -0.368715 18.8675
rtibia 31.5236
rfoot -23.9822 -10.2962
rtoes 10.6809
lfemur -13.4241 9.8422 -25.9955
ltibia 21.926
lfoot -14.9614 36.0996
ltoes -4.09865
1244
root 2.4616 17.8304 13.8164 -168.149 -62.6023 176.27
lowerback 1.87718 -3.80123 -6.81848
upperback -1.0331 -5.22572 2.85429
thorax -1.24717 -2.54381 6.90996
lowerneck -18.2632 -3.83456 -11.6419
upperneck 36.4497 -5.19213 4.10054
head 16.6706 -3.83168 2.65621
rclavicle 3.01159e-014 6.75868e-015
rhumerus -32.1965 -7.18009 -77.8739
rradius 32.8792
rwrist 19.4205
rhand -22.0319 3.09675
rfingers 7.12502
rthumb 4.37799 -26.838
lclavicle 3.01159e-014 6.75868e-015
lhumerus -30.5098 -4.77866 86.5916
lradius 36.2663
lwrist -7.63983
lhand -9.25897 25.5653
lfingers 7.12502
lthumb 16.6971 54.8672
rfemur -17.0268 -0.26676 18.9854
rtibia 31.4635
rfoot -23.8583 -10.3494
rtoes 10.1023
lfemur -13.3352 10.0685 -25.8678
ltibia 21.9272
lfoot -15.0036 36.0316
ltoes -4.11436
1245
root 2.46381 17.8311 13.7901 -168.255 -62.4016 176.362
lowerback 1.87007 -3.82053 -6.74514
upperback -0.987274 -5.24822 2.85528
thorax -1.19798 -2.5593 6.8666
lowerneck -18.3021 -3.79806 -11.5557
upperneck 36.4208 -5.15047 4.08066
head 16.6554 -3.80327 2.64004
rclavicle 8.02096e-014 -2.78299e-015
rhumerus -32.2175 -7.64798 -77.6341
rradius 32.4417
rwrist 19.7643
rhand -21.734 2.96479
rfingers 7.12502
rthumb 4.66567 -26.9638
lclavicle 8.02096e-014 -2.78299e-015
lhumerus -30.4629 -5.60737 86.8618
lradius 36.5267
lwrist -7.97261
lhand -9.28498 26.0156
lfingers 7.12502
lthumb 16.6721 55.3197
rfemur -16.9566 -0.231427 19.0956
rtibia 31.387
rfoot -23.8446 -9.97777
rtoes 11.9153
lfemur -13.2537 9.99913 -25.7322
ltibia 21.9472
lfoot -15.3091 36.1919
ltoes -3.62972
1246
root 2.4679 17.8339 13.7626 -168.366 -62.2947 176.451
lowerback 1.85509 -3.8923 -6.74395
upperback -0.909345 -5.34179 2.923
thorax -1.08654 -2.61378 6.93174
lowerneck -18.3593 -3.73376 -11.4615
upperneck 36.3403 -5.0285 3.99559
head 16.6067 -3.74544 2.60916
rclavicle -7.50412e-015 -4.37326e-015
rhumerus -32.217 -7.97317 -77.3515
rradius 32.0537
rwrist 20.0784
rhand -21.4605 2.77237
rfingers 7.12502
rthumb 4.92972 -27.1503
lclavicle -7.50412e-015 -4.37326e-015
lhumerus -30.4087 -6.20599 87.117
lradius 36.7876
lwrist -8.49755
lhand -9.33808 26.0345
lfingers 7.12502
lthumb 16.621 55.3428
rfemur -16.8607 -0.0671005 19.2155
rtibia 31.3183
rfoot -24.0461 -9.60623
rtoes 14.6444
lfemur -13.1643 9.79444 -25.572
ltibia 21.9512
lfoot -15.4605 36.4236
ltoes -3.50851
1247
root 2.47259 17.8363 13.7392 -168.315 -62.2028 176.403
lowerback 1.8634 -3.95882 -6.75825
upperback -0.880883 -5.43128 2.9918
thorax -1.03858 -2.66198 7.01111
lowerneck -18.392 -3.68195 -11.6292
upperneck 36.2982 -4.91244 4.09116
head 16.5899 -3.70529 2.70353
rclavicle 5.8393e-014 1.90833e-014
rhumerus -32.2484 -8.26045 -77.036
rradius 31.7057
rwrist 20.3004
rhand -21.2357 2.53396
rfingers 7.12502
rthumb 5.14677 -27.3835
lclavicle 5.8393e-014 1.90833e-014
lhumerus -30.2967 -6.52274 87.3765
lradius 36.9812
lwrist -9.02522
lhand -9.33676 25.9067
lfingers 7.12502
lthumb 16.6222 55.2149
rfemur -16.8543 0.113448 19.254
rtibia 31.2806
rfoot -23.9393 -10.0628
rtoes 12.3814
lfemur -13.1217 9.73191 -25.4974
ltibia 21.9146
lfoot -15.6693 36.4285
ltoes -3.09513
1248
root 2.47498 17.8384 13.7213 -168.162 -62.0751 176.26
lowerback 1.92639 -4.00963 -6.65262
upperback -0.906651 -5.50084 3.0043
thorax -1.09731 -2.6946 6.97097
lowerneck -18.5136 -3.64662 -11.8655
upperneck 36.3988 -4.81103 4.20278
head 16.6741 -3.68666 2.81387
rclavicle 2.88238e-014 3.18055e-015
rhumerus -32.3292 -8.50423 -76.7522
rradius 31.2802
rwrist 20.4921
rhand -21.1693 2.48599
rfingers 7.12502
rthumb 5.21087 -27.4299
lclavicle 2.88238e-014 3.18055e-015
lhumerus -30.2582 -6.74243 87.5845
lradius 37.2543
lwrist -9.38345
lhand -9.02552 25.7419
lfingers 7.12502
lthumb 16.9219 55.0247
rfemur -16.8748 0.167443 19.2172
rtibia 31.2642
rfoot -23.7767 -10.49
rtoes 9.88792
lfemur -13.0916 9.8936 -25.522
ltibia 21.8419
lfoot -15.5256 36.3589
ltoes -3.3921
1249
root 2.47521 17.8393 13.7033 -167.842 -61.9508 175.941
lowerback 1.981 -4.04338 -6.58527
upperback -0.959756 -5.54814 2.95167
thorax -1.18659 -2.71319 6.88486
lowerneck -18.5227 -3.59508 -11.9385
upperneck 36.4464 -4.7057 4.18041
head 16.6913 -3.66192 2.83732
rclavicle -5.05907e-014 3.57812e-015
rhumerus -32.6135 -8.84879 -76.45
rradius 30.9662
rwrist 20.6903
rhand -21.3301 2.63207
rfingers 7.12502
rthumb 5.05564 -27.2876
lclavicle -5.05907e-014 3.57812e-015
lhumerus -30.3927 -7.22845 87.7454
lradius 37.6503
lwrist -9.30628
lhand -8.81252 25.4621
lfingers 7.12502
lthumb 17.1269 54.7272
rfemur -16.8988 0.106022 19.088
rtibia 31.2641
rfoot -23.2576 -9.45625
rtoes 14.0084
lfemur -13.0425 9.92773 -25.6445
ltibia 21.7544
lfoot -14.9976 36.4622
ltoes -4.33799
1250
root 2.47522 17.8396 13.6784 -167.665 -61.8277 175.717
lowerback 1.98437 -4.04416 -6.6153
upperback -0.940294 -5.54965 2.9059
thorax -1.16975 -2.71462 6.85285
lowerneck -18.4757 -3.5691 -11.7669
upperneck 36.4085 -4.66356 3.99898
head 16.6427 -3.64512 2.73444
rclavicle -4.77083e-014 1.74931e-014
rhumerus -32.8938 -9.15076 -76.1984
rradius 30.7069
rwrist 20.7543
rhand -21.3508 2.69461
rfingers 7.12502
rthumb 5.03567 -27.2256
lclavicle -4.77083e-014 1.74931e-014
lhumerus -30.4274 -7.74096 87.8695
lradius 37.9845
lwrist -9.05638
lhand -8.85833 25.3205
lfingers 7.12502
lthumb 17.0828 54.5895
rfemur -16.8503 -0.0101765 19.0349
rtibia 31.2644
rfoot -21.9057 -7.27941
rtoes 23.2215
lfemur -12.9084 9.86723 -25.6775
ltibia 21.6767
lfoot -14.6349 36.619
ltoes -5.02106
1251
root 2.47686 17.841 13.6489 -167.716 -61.7457 175.746
lowerback 1.94372 -4.03315 -6.63565
upperback -0.892275 -5.53219 2.92422
thorax -1.09624 -2.71034 6.87763
lowerneck -18.3689 -3.59967 -11.6124
upperneck 36.3088 -4.71852 3.85342
head 16.5606 -3.66236 2.63189
rclavicle 1.10027e-013 -2.34566e-014
rhumerus -33.037 -9.29648 -75.9676
rradius 30.2813
rwrist 20.7484
rhand -21.39 2.74825
rfingers 7.12502
rthumb 4.99774 -27.1728
lclavicle 1.10027e-013 -2.34566e-014
lhumerus -30.3897 -8.01458 87.985
lradius 38.2901
lwrist -8.86714
lhand -8.82723 25.2413
lfingers 7.12502
lthumb 17.1127 54.5077
rfemur -16.7879 -0.0368117 19.1335
rtibia 31.2574
rfoot -23.5643 -9.49487
rtoes 12.4299
lfemur -12.7826 9.89378 -25.547
ltibia 21.6136
lfoot -14.8527 36.5676
ltoes -4.42445
1252
root 2.47869 17.843 13.6204 -167.828 -61.6604 175.821
lowerback 1.97382 -4.06096 -6.62045
upperback -0.862716 -5.57057 2.99039
thorax -1.07084 -2.73217 6.93956
lowerneck -18.3458 -3.56466 -11.5516
upperneck 36.2685 -4.6105 3.65674
head 16.5147 -3.63584 2.55473
rclavicle -3.67752e-014 1.59028e-014
rhumerus -33.1654 -9.34479 -75.6892
rradius 29.8953
rwrist 21.0837
rhand -21.3895 2.7449
rfingers 7.12502
rthumb 4.99827 -27.1761
lclavicle -3.67752e-014 1.59028e-014
lhumerus -30.4642 -8.0692 88.1207
lradius 38.7149
lwrist -8.60303
lhand -8.85349 25.2654
lfingers 7.12502
lthumb 17.0875 54.5339
rfemur -16.6881 0.0217457 19.249
rtibia 31.2273
rfoot -23.6638 -9.24028
rtoes 13.8534
lfemur -12.679 10.1611 -25.4144
ltibia 21.5909
lfoot -14.5027 36.4282
ltoes -4.62159
